<?xml version="1.0" encoding="utf-8"?>
<!-- Generator: Adobe Illustrator 27.5.0, SVG Export Plug-In . SVG Version: 6.00 Build 0)  -->
<svg version="1.1" id="PRINT" xmlns="http://www.w3.org/2000/svg" xmlns:xlink="http://www.w3.org/1999/xlink" x="0px" y="0px"
	 viewBox="0 0 500 500" style="enable-background:new 0 0 500 500;" xml:space="preserve">
<g>
	<rect id="CUSTOM-Background" style="fill:#FFFFFF;" width="500" height="500"/>
	<g id="CUSTOM-group_00000163792575659860163070000003484491023707132293_">
		<path style="fill:#FFB92C;" d="M247.57,162.005v1.637c2.271-0.154,3.487,0.03,3.614,0.051c0.731,0.119,1.355,0.592,1.67,1.262
			l3.192,6.803c0.386,0.09,0.754,0.281,1.058,0.577c0.385,0.375,0.846,0.669,1.368,0.797c1.043,0.254,2.077-0.036,2.809-0.747
			c0.755-0.733,1.906-0.92,2.795-0.357c1.272,0.803,1.408,2.505,0.411,3.503c-1.407,1.408-3.279,2.183-5.269,2.183
			c-0.128,0-0.255-0.003-0.383-0.01l4.291,9.146c0.181,0.386,0.353,0.774,0.516,1.164c4.831-1.524,10.327-0.392,14.166,3.404
			c0.858,0.848,0.954,2.233,0.151,3.136c-0.448,0.504-1.064,0.756-1.681,0.756c-0.574,0-1.149-0.219-1.587-0.658
			c-2.602-2.602-6.339-3.393-9.633-2.378c1.249,4.981,1.166,10.122-0.123,14.942c0.607,0.201,1.225,0.38,1.853,0.536
			c0.729,0.181,1.49,0.183,2.22,0.002c11.229-2.777,19.225-12.876,19.225-24.575v-21.173c0-1.048-0.647-1.988-1.629-2.357
			c-3.092-1.162-9.069-2.742-18.701-2.742c-9.633,0-15.61,1.58-18.703,2.742C248.217,160.016,247.57,160.956,247.57,162.005z
			 M272.393,172.354c0.877-0.877,2.298-0.877,3.176,0c0.559,0.559,1.302,0.867,2.093,0.867c0.791,0,1.535-0.308,2.093-0.867
			c0.877-0.877,2.299-0.877,3.176,0c0.877,0.877,0.877,2.298,0,3.175c-1.408,1.408-3.278,2.183-5.269,2.183
			c-1.99,0-3.861-0.775-5.269-2.183C271.517,174.652,271.517,173.231,272.393,172.354z"/>
		<path d="M259.06,188.755l-9.041-19.27c-0.416-0.887-1.338-1.421-2.315-1.347c-3.265,0.247-9.388,1.33-18.208,5.468
			c-8.721,4.092-13.461,8.061-15.767,10.426c-0.732,0.751-0.919,1.876-0.473,2.826l8.993,19.168
			c4.969,10.591,16.498,16.337,27.844,14.082c0.733-0.146,1.42-0.468,2.001-0.939C261.079,211.886,264.029,199.347,259.06,188.755z
			 M240.89,187.319c1.396-3.864,5.676-5.873,9.54-4.476c1.166,0.421,1.77,1.708,1.348,2.875c-0.421,1.166-1.708,1.77-2.875,1.348
			c-1.535-0.554-3.235,0.243-3.79,1.778c-0.33,0.915-1.192,1.483-2.112,1.483c-0.254,0-0.511-0.043-0.763-0.134
			C241.073,189.772,240.469,188.485,240.89,187.319z M232.206,194.901c-0.744-0.269-1.548-0.232-2.264,0.104
			c-0.716,0.336-1.258,0.93-1.526,1.674c-0.33,0.915-1.193,1.484-2.112,1.484c-0.253,0-0.511-0.044-0.763-0.134
			c-1.167-0.421-1.77-1.708-1.349-2.875c0.677-1.872,2.041-3.369,3.843-4.214c1.802-0.845,3.825-0.939,5.697-0.262
			c1.167,0.421,1.77,1.708,1.349,2.875C234.66,194.718,233.372,195.322,232.206,194.901z M239.746,209.579
			c-1.587,0-3.199-0.27-4.775-0.839c-1.167-0.421-1.77-1.708-1.349-2.875c0.422-1.166,1.708-1.77,2.875-1.349
			c4.979,1.799,10.494-0.788,12.293-5.767c0.421-1.167,1.708-1.77,2.875-1.349c1.166,0.422,1.77,1.709,1.349,2.876
			C250.943,206.006,245.516,209.579,239.746,209.579z"/>
	</g>
	<path id="CUSTOM" style="fill:#FFB92C;" d="M434.29,297.777H68.45c-1.104,0-2-1.098-2-2.453c0-1.354,0.896-2.453,2-2.453h365.84
		c1.104,0,2,1.098,2,2.453C436.29,296.679,435.394,297.777,434.29,297.777z"/>
	<g id="CUSTOM-group">
		<path style="fill:#FFB92C;" d="M188.583,196.893H69.059c-1.381,0-2.5-1.119-2.5-2.5c0-1.381,1.119-2.5,2.5-2.5h119.523
			c1.381,0,2.5,1.119,2.5,2.5C191.083,195.774,189.964,196.893,188.583,196.893z"/>
		<path style="fill:#FFB92C;" d="M432.029,196.893H312.506c-1.381,0-2.5-1.119-2.5-2.5c0-1.381,1.119-2.5,2.5-2.5h119.523
			c1.381,0,2.5,1.119,2.5,2.5C434.529,195.774,433.41,196.893,432.029,196.893z"/>
	</g>
	
		<text transform="matrix(1 0 0 1 66.8191 263.8242)" style="font-family:'Overlock-Black'; font-size:62.5199px; letter-spacing:1;">Dramasphere</text>
	<text transform="matrix(1 0 0 1 115.0172 328.9111)" style="font-family:'Poppins-SemiBold'; font-size:23.9189px;">Academy of Dramatic Arts</text>
</g>
</svg>
